<?xml version="1.0" encoding="utf-8"?>
<!-- Generator: Adobe Illustrator 23.0.2, SVG Export Plug-In . SVG Version: 6.00 Build 0)  -->
<svg version="1.1" id="Layer_1" xmlns="http://www.w3.org/2000/svg" xmlns:xlink="http://www.w3.org/1999/xlink" x="0px" y="0px"
	 viewBox="0 0 862.7 644.8" style="enable-background:new 0 0 862.7 644.8;" xml:space="preserve">
<style type="text/css">
	.st0{fill:#9E616A;}
	.st1{fill:#2F2E41;}
	.st2{fill:#FFB6B6;}
	.st3{fill:#E6E6E6;}
	.st4{fill:#FFFFFF;}
	.st5{fill:#FFB8B8;}
	.st6{fill:#CCCCCC;}
	.st7{fill:#EB3C33;}
	.st8{fill:#3F3D56;}
	.st9{fill:#F2F2F2;}
</style>
<polygon class="st0" points="629.9,612.6 612.8,612.6 604.6,546.4 629.9,546.4 "/>
<path class="st1" d="M639,642.4h-12.3l-2.2-11.6l-5.6,11.6h-32.6c-4.1,0-7.3-3.3-7.3-7.3c0-2.4,1.2-4.7,3.2-6l26.1-18v-11.7
	l27.4,1.6L639,642.4z"/>
<polygon class="st0" points="731.9,591 718.1,601.2 672.1,553 692.4,537.9 "/>
<path class="st1" d="M756.9,609.4l-9.9,7.3l-8.7-8l2.4,12.7l-26.2,19.5c-3.3,2.4-7.8,1.7-10.3-1.5c-1.4-1.9-1.8-4.5-1.1-6.7l10.2-30
	l-7-9.4l23-15.1L756.9,609.4z"/>
<path class="st1" d="M649.9,271c0,0,32.6,28.1,17.5,108.4L649.1,458l59.8,99.3l-19.1,23.2L612.1,473l-28.2-66.1L576,289.2L649.9,271
	z"/>
<polygon class="st1" points="599.4,425.7 597.5,456.1 603.5,585.4 631.7,580.5 637.1,488.4 "/>
<polygon class="st2" points="237.4,628.2 252.8,628.2 260.1,569 237.4,569 "/>
<path class="st1" d="M233.5,623.2l4.3,0l16.9-6.9l9,6.9h0c10.6,0,19.3,8.6,19.3,19.3v0.6l-49.5,0L233.5,623.2z"/>
<polygon class="st2" points="296.9,618.5 311.9,621.9 332.1,565.8 310,560.8 "/>
<path class="st1" d="M294.2,612.8l4.2,1l18-3l7.3,8.7l0,0c10.4,2.3,16.9,12.7,14.5,23l-0.1,0.6l-48.3-10.9L294.2,612.8z"/>
<path class="st1" d="M218,266.2c-7.2,21.7-6.4,45.3,1.7,70.6l3.5,142.4c0,0-5.2,93.4,11.6,126.2h24.3l12.1-134.8l1.5-90.4l52.2,76.3
	l-33.2,146.7l30,2.7l53.9-159.2L309,292.2L218,266.2z"/>
<path class="st3" d="M498.7,204.4c18.6-16.8,46.3-25.2,69.5-15.8c-23.8,13.2-42.2,34.5-51.9,59.9c-3.7,9.8-6.8,21.2-15.9,26.4
	c-5.7,3.3-12.7,3.4-19,1.9c-6.3-1.6-12.2-4.8-17.9-7.9l-1.6,0C469.2,244.9,480.1,221.2,498.7,204.4z"/>
<path class="st4" d="M568.1,189.1c-20.6,2.7-39.8,11.7-54.9,25.9c-3.3,3-6.1,6.5-8.3,10.4c-2,3.8-3,8.2-2.8,12.5
	c0.1,4.1,0.7,8.2-0.2,12.2c-1,4.1-3.7,7.7-7.4,9.7c-4.5,2.6-9.8,3.4-14.9,4.1c-5.7,0.7-11.6,1.3-16.5,4.5c-0.6,0.4-1.2-0.6-0.6-0.9
	c8.6-5.6,19.4-3.5,28.6-7.2c4.3-1.7,8.1-4.8,9.5-9.4c1.2-4,0.6-8.3,0.5-12.4c-0.3-4.2,0.5-8.5,2.3-12.3c2-4,4.7-7.6,7.9-10.7
	c7.1-7,15.4-12.9,24.3-17.4c10.2-5.2,21.2-8.6,32.6-10.1C568.8,187.9,568.8,189,568.1,189.1L568.1,189.1z"/>
<path class="st4" d="M517.8,210.2c-4.2-5.9-3.5-14,1.6-19.1c0.5-0.5,1.3,0.3,0.8,0.8c-4.8,4.7-5.4,12.3-1.5,17.8
	C519.2,210.2,518.2,210.8,517.8,210.2L517.8,210.2z"/>
<path class="st4" d="M501.7,235.9c7.1,1.3,14.4-0.2,20.4-4.1c0.6-0.4,1.2,0.6,0.6,0.9c-6.3,4-13.9,5.5-21.2,4.2
	C500.7,236.8,501,235.8,501.7,235.9L501.7,235.9z"/>
<path class="st4" d="M545.8,194.3c1.1,2.6,3.5,4.4,6.3,4.9c0.7,0.1,0.4,1.2-0.3,1.1c-3.1-0.5-5.7-2.6-6.9-5.4
	c-0.1-0.3-0.1-0.6,0.2-0.8C545.3,194,545.6,194.1,545.8,194.3L545.8,194.3z"/>
<path class="st3" d="M593.8,269.5c-0.4-0.1-0.9-0.1-1.3-0.2c-5.9-0.8-11.9-1.1-17.9-0.9c-0.5,0-0.9,0-1.4,0
	c-14.4,0.6-28.5,3.9-41.8,9.6c-5.3,2.3-10.3,5-15.2,8.1c-6.7,4.2-13.6,9.4-21.1,11.1c-0.8,0.2-1.6,0.3-2.4,0.4L462,270.9
	c0-0.1-0.1-0.2-0.1-0.3l-1.3-1c0.2-0.2,0.5-0.4,0.7-0.5c0.1-0.1,0.3-0.2,0.4-0.3c0.1-0.1,0.2-0.1,0.3-0.2c0,0,0.1,0,0.1-0.1
	c0.1-0.1,0.2-0.1,0.2-0.2c1.4-1,2.8-2,4.2-3c0,0,0,0,0,0c10.8-7.5,22.4-13.8,34.6-18.6c0.4-0.1,0.7-0.3,1.1-0.4
	c5.5-2,11.2-3.6,16.9-4.8c3.2-0.6,6.3-1.1,9.6-1.3c8.3-0.7,16.6-0.1,24.7,1.8c16.1,3.7,30.9,12.6,39.7,26.4
	C593.4,268.8,593.6,269.1,593.8,269.5z"/>
<path class="st4" d="M593.4,269.8c-18-10.3-38.8-14.6-59.5-12.4c-4.4,0.4-8.8,1.5-12.9,3.3c-3.9,1.8-7.3,4.7-9.8,8.3
	c-2.4,3.3-4.4,7-7.5,9.6c-3.3,2.7-7.6,3.9-11.8,3.3c-5.2-0.7-9.9-3.1-14.3-5.7c-5-2.9-10.1-5.9-15.9-6.3c-0.7-0.1-0.6-1.1,0.1-1.1
	c10.2,0.7,17.6,8.9,27.2,11.5c4.5,1.2,9.3,1.1,13.2-1.8c3.4-2.5,5.5-6.3,7.8-9.6c2.4-3.5,5.5-6.4,9.3-8.5c4-2,8.3-3.2,12.7-3.7
	c9.9-1.3,20-1.1,29.9,0.7c11.3,2,22.1,5.9,32.1,11.6C594.7,269.3,594,270.2,593.4,269.8L593.4,269.8z"/>
<path class="st4" d="M540.6,256.4c0.2-7.3,5.6-13.3,12.8-14.3c0.7-0.1,0.9,1,0.2,1.1c-6.7,0.9-11.7,6.5-11.9,13.3
	C541.6,257.2,540.5,257.1,540.6,256.4L540.6,256.4z"/>
<path class="st4" d="M512.2,267.2c4.9,5.3,11.6,8.5,18.7,9c0.7,0.1,0.6,1.2-0.1,1.1c-7.4-0.6-14.4-3.9-19.5-9.4
	C510.9,267.4,511.8,266.7,512.2,267.2L512.2,267.2z"/>
<path class="st4" d="M572.4,260.6c-0.6,2.7,0.1,5.6,2.1,7.7c0.5,0.5-0.4,1.2-0.9,0.7c-2.1-2.3-3-5.5-2.3-8.5c0-0.3,0.3-0.5,0.6-0.5
	C572.3,260,572.5,260.3,572.4,260.6L572.4,260.6z"/>
<path class="st3" d="M51.3,627.1c-1.4,5.4-5.3,10-9.9,13.3c-0.8,0.5-1.5,1-2.3,1.5c-0.2,0.1-0.5,0.3-0.7,0.4
	c-0.3,0.2-0.5,0.3-0.8,0.5H15.9c-0.4-0.8-0.8-1.6-1.1-2.4C5.5,620.9-1,599.9,0.1,578.5c0.4-8.3,2.2-16.5,5.2-24.3
	c5.9-15.5,16.8-28.9,31.7-35.6c0.4-0.2,0.8-0.3,1.1-0.5c-0.1,0.4-0.2,0.8-0.4,1.3c-1.6,5.8-2.7,11.6-3.4,17.6
	c-0.1,0.5-0.1,0.9-0.1,1.4c-1.4,14.3-0.2,28.8,3.7,42.7c0,0,0,0.1,0,0.1c0.9,3.1,1.8,6.1,3,9.1c0.9,2.3,1.8,4.7,2.9,7
	C48.2,606.8,54,617,51.3,627.1z"/>
<path class="st4" d="M38.4,518.6c-0.2,0.3-0.4,0.5-0.6,0.8c-4.4,5.8-8.1,12.1-11.1,18.8c-0.2,0.3-0.3,0.7-0.4,1
	c-4.1,9.3-6.7,19.1-7.8,29.2c0,0.1,0,0.1,0,0.2c-0.3,2.4-0.4,4.7-0.5,7.1c-0.2,4.5,0.3,8.9,1.4,13.2c1.1,3.5,2.9,6.7,5.5,9.4
	c0.3,0.3,0.5,0.5,0.8,0.8c0.2,0.2,0.4,0.4,0.6,0.6c2,1.9,4.2,3.7,6.1,5.8c0.9,0.9,1.7,1.9,2.4,3c2.2,3.6,2.8,8,1.6,12.1
	c-1.4,5.1-4.5,9.3-7.6,13.4c-1.6,2-3.2,4.1-4.6,6.3c-0.5,0.8-1,1.6-1.4,2.4h-1.3c0.4-0.8,0.9-1.6,1.4-2.4c3.6-5.8,8.8-10.7,11.5-17
	c1.8-4.3,2.4-9.1,0.1-13.3c-0.7-1.2-1.5-2.4-2.4-3.4c-1.8-2.1-4-3.8-6-5.7c-0.5-0.5-1-1-1.5-1.5c-2.5-2.5-4.4-5.6-5.6-8.9
	c-1.4-4.2-2-8.7-1.9-13.1c0-2.8,0.1-5.7,0.4-8.5c0-0.4,0.1-0.7,0.1-1.1c2-17.9,8.8-34.9,19.7-49.2c0.2-0.3,0.4-0.5,0.6-0.8
	C38,517.3,38.8,518,38.4,518.6z"/>
<path class="st4" d="M17.7,569.1c-7.2-1.2-12.4-7.4-12.4-14.7c0-0.3,0.3-0.5,0.6-0.5c0.3,0,0.5,0.2,0.5,0.5
	c0,6.8,4.8,12.5,11.5,13.6C18.7,568.1,18.4,569.2,17.7,569.1L17.7,569.1z"/>
<path class="st4" d="M24.5,598.6c5.9-4.1,10-10.3,11.5-17.3c0.2-0.7,1.2-0.4,1.1,0.3c-1.6,7.3-5.9,13.7-12,18
	C24.5,600,23.9,599,24.5,598.6L24.5,598.6z"/>
<path class="st4" d="M26.3,538.1c2.6,1,5.6,0.7,7.9-1c0.6-0.4,1.1,0.5,0.6,0.9c-2.5,1.8-5.8,2.2-8.7,1.1c-0.3-0.1-0.5-0.4-0.4-0.7
	C25.7,538.2,26,538,26.3,538.1z"/>
<path class="st3" d="M113.4,557.3c-0.4,0.3-0.7,0.5-1.1,0.8c-4.7,3.6-9.2,7.6-13.3,12c-0.3,0.3-0.6,0.7-1,1l0,0
	c-9.7,10.5-17.4,22.8-22.7,36.1l0,0.1c0,0,0,0,0,0.1c-2.1,5.3-3.8,10.8-5,16.4c-1.2,5.5-2.2,11.3-4.1,16.6c-0.3,0.8-0.6,1.6-0.9,2.4
	H20.8c0.1-0.8,0.3-1.6,0.5-2.4c2.3-11.6,5.8-22.9,10.5-33.7c0.2-0.4,0.3-0.7,0.5-1.1c2.4-5.3,5.3-10.5,8.6-15.3c0,0,0,0,0,0
	c0,0,0,0,0,0c1.8-2.7,3.7-5.2,5.8-7.7c5.3-6.4,11.7-11.8,18.7-16.2c0,0,0.1,0,0.1-0.1c14-8.7,30.7-12.9,46.6-9.3h0
	C112.6,557.1,113,557.2,113.4,557.3z"/>
<path class="st4" d="M113.4,557.8c-0.3,0.1-0.7,0.2-1,0.3c-7,2-13.8,4.8-20.2,8.3c-0.3,0.2-0.6,0.3-1,0.5
	c-8.8,4.9-16.9,11.2-23.8,18.6c0,0,0,0,0,0c-0.1,0.1-0.2,0.2-0.2,0.3c-1.6,1.7-3.1,3.5-4.6,5.3c-2.9,3.4-5.2,7.3-6.8,11.4
	c-1.3,3.5-1.7,7.2-1.3,10.8c0,0.4,0.1,0.7,0.1,1.1c0,0.3,0.1,0.6,0.1,0.9c0.7,4,1.8,8,1.5,12.1c-0.4,4.2-2.6,8.1-6,10.6
	c-1.2,0.9-2.4,1.7-3.7,2.3c-1.9,1-3.8,1.8-5.8,2.4h-3.9c0.5-0.2,1.1-0.3,1.6-0.5c1.9-0.5,3.7-1.2,5.5-1.9c1-0.4,2-0.9,3-1.5
	c4-2.3,7.4-5.8,8.1-10.6c0.6-4.1-0.6-8.3-1.3-12.3c-0.1-0.7-0.2-1.4-0.3-2.1c-0.5-3.5-0.2-7.1,0.9-10.5c1.4-4.2,3.6-8.2,6.4-11.7
	c1.7-2.3,3.5-4.5,5.5-6.5c0.2-0.3,0.5-0.5,0.8-0.8c7.1-7.4,15.2-13.8,24.2-18.7h0c6.7-3.7,13.8-6.6,21.1-8.7h0
	c0.3-0.1,0.7-0.2,1-0.3C113.9,556.5,114,557.6,113.4,557.8z"/>
<path class="st4" d="M66.5,585.6c-5-5.3-5.4-13.4-1-19.1c0.4-0.6,1.3,0.1,0.9,0.6c-4.1,5.4-3.7,12.9,1,17.8
	C67.8,585.5,67,586.2,66.5,585.6L66.5,585.6z"/>
<path class="st4" d="M54.1,613.3c7.2,0.3,14.2-2.2,19.6-6.9c0.5-0.5,1.2,0.4,0.7,0.9c-5.7,4.9-13,7.4-20.4,7.1
	C53.3,614.4,53.4,613.3,54.1,613.3z"/>
<path class="st4" d="M92,566.1c1.5,2.4,4.1,3.9,6.9,4c0.7,0,0.6,1.1-0.1,1.1c-3.1-0.1-6-1.7-7.6-4.4c-0.2-0.2-0.1-0.6,0.1-0.8
	C91.5,565.8,91.8,565.8,92,566.1z"/>
<path class="st5" d="M456.4,173.1c-3.9,5.1-11.2,6.1-16.3,2.2c-0.5-0.4-1.1-0.9-1.5-1.4l-37.8,16.4l3.7-21.1l35.3-12.4
	c5-4,12.4-3.2,16.4,1.8C459.6,162.9,459.7,168.9,456.4,173.1z"/>
<path class="st3" d="M431.2,179.7l-87.8,39.1l-0.2-0.1l-100.1-35.7c-15.5-8.1-22-26.8-14.8-42.8l0,0c7.5-16.6,27-23.9,43.6-16.4
	c1.2,0.5,2.3,1.1,3.4,1.8l74.5,44.9l72.2-9.4L431.2,179.7z"/>
<path class="st6" d="M862.7,643.6c0,0.7-0.5,1.2-1.2,1.2c0,0,0,0,0,0H1.2c-0.7,0-1.2-0.5-1.2-1.2s0.5-1.2,1.2-1.2h860.3
	C862.2,642.4,862.7,642.9,862.7,643.6C862.7,643.6,862.7,643.6,862.7,643.6z"/>
<path class="st3" d="M313.3,296.8l-88.5-14.2c-8.9-2.8-13.8-12.4-10.9-21.2c0.3-0.8,0.6-1.6,1-2.4l4-8l-1.6-84.3
	c-0.4-22.3,11.2-43.2,30.3-54.7l8.6-5.2l4.4-11.1l40.2,1l0.1,14.5l14.4,23l0,0.1l-0.9,125l-4,12.9l6,15L313.3,296.8z"/>
<circle class="st5" cx="284.5" cy="45.4" r="36.5"/>
<path class="st1" d="M246.4,53.4c-1.1-4.6-0.6-11.1,0-15.7c1.6-12.1,8.3-23.6,18.6-30.5c1.9-1.5,4.2-2.4,6.7-2.6
	c2.4-0.1,5,1.2,5.8,3.5c1.2-3.1,3.7-5.5,6.8-6.7c3.1-1.2,6.4-1.6,9.6-1.3c12.9,1.1,24.2,9.1,29.4,21c1,2.3,3.7-6.2,4.9-4.1
	c1.1,2.3,3.1,4,5.5,4.9c2.4,0.7,3.4,10.7,4.4,8.3c2.4,5.6-0.2,12.2-5.8,14.6c-1.5,0.7-3.2,1-4.8,0.9c-2.5-0.1-4.8-1-7.3-1.4
	c-8.7-1.4-18,4.9-19.8,13.6c-0.7-2.5-1.7-4.9-3.2-7c-1.5-2.2-3.9-3.5-6.5-3.6c-2.5,0.1-4.7,1.7-6.3,3.6s-2.8,4.1-4.4,6
	c-4.8,5.5-11.2,18.4-18,17.4C256.7,73.5,247.9,59.6,246.4,53.4z"/>
<path class="st4" d="M505.4,214.5c0.5-3.4-1.5-6.8-4.8-7.9l-98.4-32.8c-0.9-0.3-1.9-0.4-2.9-0.3l-24.7,2.3l-14.2,1.3l-26.1,2.5
	c-3.2,0.3-5.9,2.8-6.4,6l-13.3,82.8c-0.5,3.3,1.3,6.6,4.5,7.8l99.4,38.4c0.5,0.2,1,0.3,1.4,0.4c0.7,0.1,1.5,0.1,2.2,0l64.3-9.5
	c3.1-0.5,5.6-2.9,6-6L505.4,214.5z"/>
<path class="st7" d="M321.4,270.5l99.4,38.4c0.1,0.1,0.3,0.1,0.5,0.1l64.2-9.5c0.4-0.1,0.7-0.4,0.8-0.8l12.9-85.1
	c0.1-0.4-0.2-0.8-0.6-1l-0.7-0.2l-97.8-32.5c0,0-0.1,0-0.1,0c-0.1,0-0.2,0-0.2,0l-60.2,5.7l-4.8,0.4c-0.4,0-0.7,0.3-0.8,0.7
	l-13.3,82.8C320.7,269.9,321,270.3,321.4,270.5z"/>
<path class="st1" d="M339.6,185.5l60.2-5.7c0.1,0,0.2,0,0.2,0c0,0,0.1,0,0.1,0l97.8,32.5l-25.8,2.7l-9.7,1L435,219
	c-0.1,0-0.2,0-0.2,0c0,0-0.1,0-0.2,0L339.6,185.5z"/>
<path class="st8" d="M319.1,276.3l99.4,38.4c0.5,0.2,1,0.3,1.5,0.4c0.7,0.1,1.5,0.1,2.2,0l64.2-9.5c3.1-0.5,5.6-2.9,6-6l12.9-85.1
	c0.2-1.3,0-2.5-0.4-3.7c-0.1-0.2-0.1-0.3-0.2-0.5c-0.5-1.1-1.3-2-2.3-2.7c-0.6-0.4-1.2-0.7-1.9-1l-0.1,0l-98.3-32.7
	c-0.4-0.1-0.8-0.2-1.2-0.3c-0.6-0.1-1.1-0.1-1.7,0l-24.7,2.3l-14.2,1.4l-26.1,2.5c-1.1,0.1-2.1,0.4-3,1c-0.1,0-0.1,0.1-0.2,0.1
	c0,0-0.1,0.1-0.1,0.1c-1.6,1.1-2.7,2.8-3,4.8l-13.3,82.8C314.1,271.9,316,275.1,319.1,276.3z M329.7,186c0.2-1,0.6-1.9,1.3-2.7
	c0.2-0.2,0.4-0.5,0.7-0.7c0.7-0.5,1.5-0.9,2.3-1.1c0.2,0,0.3-0.1,0.5-0.1l44-4.2l21-2c0.1,0,0.3,0,0.4,0c0.3,0,0.6,0,0.9,0.1
	c0.3,0,0.6,0.1,0.8,0.2l98.4,32.8c0.1,0,0.1,0.1,0.2,0.1c0.9,0.3,1.7,0.9,2.3,1.7c0.9,1.2,1.4,2.7,1.1,4.1l-12.9,85.1
	c-0.3,2.3-2.2,4.2-4.5,4.5l-64.3,9.5c-0.9,0.1-1.9,0-2.7-0.3l-99.4-38.4c-2.3-0.9-3.7-3.4-3.4-5.8L329.7,186z"/>
<path class="st8" d="M330.7,181.4c0.1-0.2,0.1-0.3,0.3-0.4c0,0,0.1-0.1,0.1-0.1c0,0,0.1,0,0.1-0.1c0.2-0.1,0.4-0.1,0.6,0l2.1,0.7
	L435,217.2l23.7-2.5l13.2-1.4l28-3l2.5-0.3l0.5-0.1c0.4,0,0.8,0.2,1,0.7c0,0,0,0.1,0,0.1c0,0.4-0.2,0.8-0.6,0.9
	c-0.1,0-0.2,0.1-0.2,0.1l-3.4,0.4l-27.6,2.9l-9.7,1L435,219c-0.1,0-0.2,0-0.2,0c0,0-0.1,0-0.2,0l-103-36.3l-0.3-0.1
	c-0.1,0-0.2-0.1-0.2-0.1C330.7,182.2,330.6,181.8,330.7,181.4z"/>
<path class="st8" d="M420.3,315.4c-0.5-0.1-0.8-0.5-0.7-1L434,218c0.1-0.5,0.5-0.8,1-0.8l0,0c0.5,0.1,0.8,0.5,0.7,1l-14.5,96.3
	C421.2,315.1,420.8,315.4,420.3,315.4L420.3,315.4z"/>
<path class="st8" d="M457.1,309.3l-9.7,1l11.3-95.5c0,0,12.9-2.3,13.2-1.4C472.2,213.9,457.2,308.6,457.1,309.3z"/>
<polygon class="st8" points="331.3,182.5 331,226.1 408.1,255.5 435.8,218.3 "/>
<path class="st8" d="M502.5,210.1c-0.6-0.8-1.5-1.4-2.5-1.7l-98.4-32.8c-0.3-0.1-0.6-0.2-0.8-0.2c-0.3-0.1-0.6-0.1-1-0.1l0.2-1
	l1-0.7l23.4-16.9l78,23.9l0.1,27.1L502.5,210.1z"/>
<path class="st4" d="M335.2,252.5c0.1,0,0.2,0,0.3,0.1l30.2,9.9c0.8,0.3,1.2,1.1,1,1.9c-0.3,0.8-1.1,1.2-1.9,1l-30.2-9.9
	c-0.8-0.3-1.2-1.1-1-1.9C333.8,252.8,334.5,252.4,335.2,252.5L335.2,252.5z"/>
<circle class="st9" cx="457" cy="423.2" r="12"/>
<circle class="st9" cx="151" cy="467.2" r="12"/>
<circle class="st9" cx="401" cy="70.2" r="12"/>
<path class="st5" d="M420.7,270.1c-5.9,2.6-12.7-0.1-15.3-6c-0.3-0.6-0.5-1.3-0.6-1.9l-41-4.1l13.5-16.6l36.9,6.5
	c6.4-1.1,12.4,3.2,13.4,9.6C428.5,262.8,425.6,268,420.7,270.1z"/>
<path class="st3" d="M395.5,263.5l-95.7-8.8l-0.1-0.2l-69.9-80c-9.5-14.6-6-34.1,8-44.5l0,0c14.6-10.8,35.2-7.7,46,7
	c0.8,1,1.5,2.1,2.1,3.2l43,75.5l67.6,27.1L395.5,263.5z"/>
<path class="st1" d="M635.7,109.6c-2.4-17.4-5.4-36.2-17.7-48.7c-16-16.3-42.1-16.6-58.5-0.7c-0.4,0.4-0.9,0.9-1.3,1.3
	c-9,9.5-12.9,23-13.3,36s2.6,26,5.8,38.7c17.1,0.3,34.1-3,49.8-9.8c3.9-1.7,7.8-3.6,11.9-4.7c4.1-1.1,7.1,1.6,11,3.5l2.1-4.1
	c1.7,3.2,7.1,2.3,9-0.8C636.6,117.2,636.2,113.2,635.7,109.6z"/>
<path class="st0" d="M567.9,206.9l-69.9,1.5c-3.1-5.3-9.8-7.1-15.1-4c-5.3,3.1-7.1,9.8-4,15.1c2.9,4.9,9,6.9,14.2,4.5
	c9.3,0.5,81.8,10.8,86.1,4.2c4.4-6.7,27.8-30.5,27.8-30.5L589,172L567.9,206.9z"/>
<circle class="st0" cx="584.9" cy="94" r="32.8"/>
<path class="st7" d="M430.7,171.6"/>
<path class="st8" d="M637.5,157.2c-3.9-7.7-5.7-17.2-14-19.7c-5.6-1.7-28.1,0.8-33.2,3.7c-8.4,4.7-0.8,13.6-5.8,21.9
	c-5.4,9-20.1,27.1-25.5,36.2c-3.7,6.2,8.8,24.4,6.8,31.4c-2,6.9-2.1,14.7,1.3,21.1c3.1,5.7-1.4,10.7,1.7,16.4
	c3.2,5.9,7.1,28.1,4.2,34.1l-2,6c19.8,1.2,36.5-22.5,56.3-25c4.9-0.6,10-1.4,14-4.3c5.9-4.2,8.3-11.8,9.8-18.9
	C658.1,225.2,653.3,189,637.5,157.2z"/>
<path class="st0" d="M667.2,238.5c-2.8-7.5-7.8-40.5-7.8-40.5l-31.3-0.9l15.3,37.8l-41.8,58.5c0,0,0.1,0.1,0.2,0.4
	c-6-1-11.7,3.1-12.7,9.2c-1,6,3.1,11.7,9.2,12.7c6,1,11.7-3.1,12.7-9.2c0-0.3,0.1-0.6,0.1-0.9c0.3,0.2,0.7,0.1,1-0.2
	C616.8,299.4,670,246.1,667.2,238.5z"/>
<path class="st8" d="M670.4,217.7c-2.9-12.1-5.8-24.3-10.6-35.8s-11.8-22.3-21.5-30.1c-3.1-2.5-6.6-4.7-10.5-5.4
	c-3.9-0.8-8.3,0.1-11.1,3c-4.4,4.6-3.1,12-1.5,18.2c4.8,18.2,9.5,36.4,14.3,54.6c13.7-1.5,27.5-2.9,41.2-4.4L670.4,217.7z"/>
<path class="st1" d="M625.1,98.6c-1.2-7.9-2.5-16-5.3-23.4c-2.8-7.5-7.4-14.5-14-18.7c-10.4-6.7-23.9-5.4-35.5-1.6
	c-9,3-17.8,7.5-24.2,14.8c-6.4,7.3-9.9,17.7-7.6,27.2c12.4-2.9,24.9-5.9,37.3-8.8l-1.4,1c8.3,4.1,14.2,11.8,16,20.9
	c1.8,9.2-0.6,18.7-6.6,25.8c8.5-3,17-6,25.4-9c5.2-1.9,10.8-4,13.9-8.8C627,112.5,626.1,105.2,625.1,98.6z"/>
</svg>
